<?xml version="1.0" encoding="UTF-8" standalone="no"?>
<!-- Generator: Adobe Illustrator 18.1.0, SVG Export Plug-In . SVG Version: 6.00 Build 0)  -->

<svg
   xmlns:dc="http://purl.org/dc/elements/1.1/"
   xmlns:cc="http://creativecommons.org/ns#"
   xmlns:rdf="http://www.w3.org/1999/02/22-rdf-syntax-ns#"
   xmlns:svg="http://www.w3.org/2000/svg"
   xmlns="http://www.w3.org/2000/svg"
   xmlns:sodipodi="http://sodipodi.sourceforge.net/DTD/sodipodi-0.dtd"
   xmlns:inkscape="http://www.inkscape.org/namespaces/inkscape"
   version="1.1"
   id="Layer_1"
   x="0px"
   y="0px"
   viewBox="0 0 132.90149 132.91773"
   enable-background="new 0 0 1000 1000"
   xml:space="preserve"
   inkscape:version="0.48.4 r9939"
   width="100%"
   height="100%"
   sodipodi:docname="arrow_white_blue.svg"><metadata
     id="metadata2994"><rdf:RDF><cc:Work
         rdf:about=""><dc:format>image/svg+xml</dc:format><dc:type
           rdf:resource="http://purl.org/dc/dcmitype/StillImage" /><dc:title /></cc:Work></rdf:RDF></metadata><defs
     id="defs2992" /><sodipodi:namedview
     pagecolor="#ffffff"
     bordercolor="#666666"
     borderopacity="1"
     objecttolerance="10"
     gridtolerance="10"
     guidetolerance="10"
     inkscape:pageopacity="0"
     inkscape:pageshadow="2"
     inkscape:window-width="1855"
     inkscape:window-height="1056"
     id="namedview2990"
     showgrid="false"
     inkscape:zoom="0.909"
     inkscape:cx="-290.53495"
     inkscape:cy="136.31585"
     inkscape:window-x="1985"
     inkscape:window-y="24"
     inkscape:window-maximized="1"
     inkscape:current-layer="g2986-4-4"
     fit-margin-top="0"
     fit-margin-left="0"
     fit-margin-right="0"
     fit-margin-bottom="0" /><g
     id="g2986-4-4"
     transform="matrix(0.16241169,0,0,0.16241169,-14.763223,-18.320039)"
     style="fill:#337ab7;fill-opacity:1"><path
       d="m 444.1,164 95.4,95.4 -116.5,116.4 -90.8,90.8 90.8,90.8 67.5,-67.5 67.5,67.5 -33.7,33.7 77.8,77.9 33.7,-33.7 L 775.6,495.5 858,577.9 909.2,112.8 444.1,164 z m -52.2,507.6 67.5,67.5 67.5,-67.5 -67.5,-67.5 -67.5,67.5 z M 389.3,586 314,510.7 238.8,586 314,661.2 389.3,586 z m -90.8,147.9 51.9,51.9 51.9,-51.9 -51.9,-51.9 -51.9,51.9 z m 137.5,59.7 33.7,33.7 33.7,-33.7 -33.7,-33.7 -33.7,33.7 z m -111.6,44.1 31.1,31.1 31.1,-31.1 -31.1,-31.1 -31.1,31.1 z m -153.1,-111.6 54.5,54.5 54.5,-54.5 -54.5,-54.5 -54.5,54.5 z m -67.5,0 26,25.9 25.9,-25.9 -26,-25.9 -25.9,25.9 z m 109,98.7 15.6,15.6 15.6,-15.6 -15.6,-15.6 -15.6,15.6 z m 77.9,31.1 10.4,10.4 10.4,-10.4 -10.4,-10.4 -10.4,10.4 z M 205,900 l 13,13 13,-13 -13,-13 -13,13 z m 140.2,15.6 15.6,15.6 15.6,-15.6 -15.7,-15.6 -15.5,15.6 z M 90.9,879.2 111.7,900 132.5,879.2 111.7,858.4 90.9,879.2 z"
       id="path2988-0-0"
       inkscape:connector-curvature="0"
       style="fill:#337ab7;fill-opacity:1" /></g></svg>